<svg width="1570" height="933" viewBox="0 0 1570 933" fill="none" xmlns="http://www.w3.org/2000/svg">
<g clip-path="url(#clip0_18_21)">
<rect width="1570" height="933" fill="#092842"/>
<line x1="1592" y1="103.5" x2="-22" y2="103.5" stroke="#073962" stroke-width="7" stroke-dasharray="20 0 42 36"/>
<line x1="1592" y1="250.5" x2="-22" y2="250.5" stroke="#073962" stroke-width="7" stroke-dasharray="20 0 42 36"/>
<line x1="1592" y1="397.5" x2="-22" y2="397.5" stroke="#073962" stroke-width="7" stroke-dasharray="20 0 42 36"/>
<line x1="1592" y1="495.5" x2="-22" y2="495.5" stroke="#073962" stroke-width="7" stroke-dasharray="20 0 42 36"/>
<line x1="1592" y1="642.5" x2="-22" y2="642.5" stroke="#073962" stroke-width="7" stroke-dasharray="20 0 42 36"/>
<line x1="1592" y1="740.5" x2="-22" y2="740.5" stroke="#073962" stroke-width="7" stroke-dasharray="20 0 42 36"/>
<line x1="1592" y1="152.5" x2="-22" y2="152.5" stroke="#073962" stroke-width="7" stroke-dasharray="20 0 42 36"/>
<line x1="1592" y1="299.5" x2="-22" y2="299.5" stroke="#073962" stroke-width="7" stroke-dasharray="20 0 42 36"/>
<line x1="1592" y1="446.5" x2="-22" y2="446.5" stroke="#073962" stroke-width="7" stroke-dasharray="20 0 42 36"/>
<line x1="1592" y1="544.5" x2="-22" y2="544.5" stroke="#073962" stroke-width="7" stroke-dasharray="20 0 42 36"/>
<line x1="1592" y1="691.5" x2="-22" y2="691.5" stroke="#073962" stroke-width="7" stroke-dasharray="20 0 42 36"/>
<line x1="1592" y1="789.5" x2="-22" y2="789.5" stroke="#073962" stroke-width="7" stroke-dasharray="20 0 42 36"/>
<line x1="1592" y1="201.5" x2="-22" y2="201.5" stroke="#073962" stroke-width="7" stroke-dasharray="20 0 42 36"/>
<line x1="1592" y1="348.5" x2="-22" y2="348.5" stroke="#073962" stroke-width="7" stroke-dasharray="20 0 42 36"/>
<line x1="1592" y1="495.5" x2="-22" y2="495.5" stroke="#073962" stroke-width="7" stroke-dasharray="20 0 42 36"/>
<line x1="1592" y1="593.5" x2="-22" y2="593.5" stroke="#073962" stroke-width="7" stroke-dasharray="20 0 42 36"/>
<line x1="1592" y1="740.5" x2="-22" y2="740.5" stroke="#073962" stroke-width="7" stroke-dasharray="20 0 42 36"/>
<line x1="1592" y1="838.5" x2="-22" y2="838.5" stroke="#073962" stroke-width="7" stroke-dasharray="20 0 42 36"/>
</g>
<defs>
<clipPath id="clip0_18_21">
<rect width="1570" height="933" fill="white"/>
</clipPath>
</defs>
</svg>
